<svg width="16" height="17" viewBox="0 0 16 17" fill="none" xmlns="http://www.w3.org/2000/svg">
<g opacity="0.5">
<path d="M12.6667 7.16683H13.3333C13.5101 7.16683 13.6797 7.23707 13.8047 7.36209C13.9298 7.48712 14 7.65668 14 7.8335V14.5002C14 14.677 13.9298 14.8465 13.8047 14.9716C13.6797 15.0966 13.5101 15.1668 13.3333 15.1668H2.66667C2.48986 15.1668 2.32029 15.0966 2.19526 14.9716C2.07024 14.8465 2 14.677 2 14.5002V7.8335C2 7.65668 2.07024 7.48712 2.19526 7.36209C2.32029 7.23707 2.48986 7.16683 2.66667 7.16683H3.33333V6.50016C3.33333 5.88733 3.45404 5.28049 3.68856 4.71431C3.92308 4.14812 4.26683 3.63367 4.70017 3.20033C5.13351 2.76699 5.64796 2.42325 6.21414 2.18872C6.78033 1.9542 7.38716 1.8335 8 1.8335C8.61284 1.8335 9.21967 1.9542 9.78586 2.18872C10.352 2.42325 10.8665 2.76699 11.2998 3.20033C11.7332 3.63367 12.0769 4.14812 12.3114 4.71431C12.546 5.28049 12.6667 5.88733 12.6667 6.50016V7.16683ZM11.3333 7.16683V6.50016C11.3333 5.61611 10.9821 4.76826 10.357 4.14314C9.7319 3.51802 8.88406 3.16683 8 3.16683C7.11595 3.16683 6.2681 3.51802 5.64298 4.14314C5.01786 4.76826 4.66667 5.61611 4.66667 6.50016V7.16683H11.3333ZM7.33333 9.8335V12.5002H8.66667V9.8335H7.33333Z" fill="#002033" fill-opacity="0.6"/>
</g>
</svg>
