<svg width="16" height="17" viewBox="0 0 16 17" fill="none" xmlns="http://www.w3.org/2000/svg">
<g opacity="0.5">
<path d="M4.66667 7.16656H13.3333C13.5101 7.16656 13.6797 7.2368 13.8047 7.36183C13.9298 7.48685 14 7.65642 14 7.83323V14.4999C14 14.6767 13.9298 14.8463 13.8047 14.9713C13.6797 15.0963 13.5101 15.1666 13.3333 15.1666H2.66667C2.48986 15.1666 2.32029 15.0963 2.19526 14.9713C2.07024 14.8463 2 14.6767 2 14.4999V7.83323C2 7.65642 2.07024 7.48685 2.19526 7.36183C2.32029 7.2368 2.48986 7.16656 2.66667 7.16656H3.33333V6.4999C3.33295 5.44837 3.68772 4.42753 4.34013 3.60285C4.99253 2.77818 5.90434 2.19802 6.92773 1.95641C7.95113 1.71479 9.02613 1.8259 9.97848 2.2717C10.9308 2.71751 11.7047 3.47189 12.1747 4.41256L10.982 5.00856C10.6463 4.33658 10.0935 3.79766 9.41322 3.4792C8.73291 3.16073 7.96497 3.08138 7.23392 3.25402C6.50287 3.42665 5.85155 3.84115 5.38557 4.4303C4.91959 5.01946 4.66627 5.74874 4.66667 6.4999V7.16656ZM3.33333 8.4999V13.8332H12.6667V8.4999H3.33333ZM6.66667 10.4999H9.33333V11.8332H6.66667V10.4999Z" fill="#002033" fill-opacity="0.6"/>
</g>
</svg>
