<svg width="56" height="56" viewBox="0 0 56 56" fill="none" xmlns="http://www.w3.org/2000/svg">
<path d="M15.75 21.875H7C6.0335 21.875 5.25 22.6585 5.25 23.625V32.375C5.25 33.3415 6.0335 34.125 7 34.125H15.75C16.7165 34.125 17.5 33.3415 17.5 32.375V23.625C17.5 22.6585 16.7165 21.875 15.75 21.875Z" stroke="white" stroke-width="2" stroke-linecap="round" stroke-linejoin="round"/>
<path d="M47.25 8.75H36.75C35.7835 8.75 35 9.5335 35 10.5V21C35 21.9665 35.7835 22.75 36.75 22.75H47.25C48.2165 22.75 49 21.9665 49 21V10.5C49 9.5335 48.2165 8.75 47.25 8.75Z" stroke="white" stroke-width="2" stroke-linecap="round" stroke-linejoin="round"/>
<path d="M47.25 33.25H36.75C35.7835 33.25 35 34.0335 35 35V45.5C35 46.4665 35.7835 47.25 36.75 47.25H47.25C48.2165 47.25 49 46.4665 49 45.5V35C49 34.0335 48.2165 33.25 47.25 33.25Z" stroke="white" stroke-width="2" stroke-linecap="round" stroke-linejoin="round"/>
<path d="M17.5 28H26.25" stroke="white" stroke-width="2" stroke-linecap="round" stroke-linejoin="round"/>
<path d="M35 40.25H31.5C30.8097 40.2529 30.1258 40.1191 29.4875 39.8563C28.8492 39.5935 28.2693 39.2069 27.7812 38.7188C27.2932 38.2307 26.9065 37.6508 26.6437 37.0125C26.3809 36.3743 26.2471 35.6903 26.25 35V21C26.2471 20.3098 26.3809 19.6258 26.6437 18.9875C26.9065 18.3493 27.2932 17.7694 27.7812 17.2813C28.2693 16.7932 28.8492 16.4066 29.4875 16.1438C30.1258 15.881 30.8097 15.7472 31.5 15.75H35" stroke="white" stroke-width="2" stroke-linecap="round" stroke-linejoin="round"/>
</svg>
