<svg width="56" height="56" viewBox="0 0 56 56" fill="none" xmlns="http://www.w3.org/2000/svg">
<path d="M28 49C39.598 49 49 39.598 49 28C49 16.402 39.598 7 28 7C16.402 7 7 16.402 7 28C7 39.598 16.402 49 28 49Z" stroke="white" stroke-width="2" stroke-linecap="round" stroke-linejoin="round"/>
<path d="M28.2414 37C28.9651 37 29.5517 36.4133 29.5517 35.6897C29.5517 34.966 28.9651 34.3793 28.2414 34.3793C27.5177 34.3793 26.931 34.966 26.931 35.6897C26.931 36.4133 27.5177 37 28.2414 37Z" fill="white"/>
<path d="M28.2414 30.5793V29.0069C29.278 29.0069 30.2914 28.6841 31.1533 28.0794C32.0153 27.4747 32.6871 26.6152 33.0838 25.6095C33.4805 24.6039 33.5843 23.4973 33.382 22.4298C33.1798 21.3622 32.6806 20.3816 31.9476 19.6119C31.2146 18.8423 30.2806 18.3181 29.2639 18.1057C28.2472 17.8934 27.1933 18.0024 26.2356 18.4189C25.2779 18.8355 24.4593 19.5409 23.8833 20.4459C23.3074 21.3509 23 22.415 23 23.5035" stroke="white" stroke-width="2" stroke-linecap="round" stroke-linejoin="round"/>
</svg>
