<svg width="56" height="56" viewBox="0 0 56 56" fill="none" xmlns="http://www.w3.org/2000/svg">
<path d="M20.3875 26.8625C19.6289 25.0014 19.2424 23.0097 19.25 21C19.25 17.885 20.1737 14.8399 21.9044 12.2498C23.635 9.6597 26.0948 7.64098 28.9727 6.4489C31.8507 5.25682 35.0175 4.94492 38.0727 5.55264C41.1279 6.16036 43.9343 7.6604 46.1369 9.86307C48.3396 12.0658 49.8397 14.8721 50.4474 17.9273C51.0551 20.9825 50.7432 24.1493 49.5511 27.0273C48.359 29.9052 46.3403 32.365 43.7502 34.0957C41.1602 35.8263 38.1151 36.75 35 36.75C32.9903 36.7576 30.9986 36.3711 29.1375 35.6125L26.25 38.5H21V43.75H15.75V49H7V40.25L20.3875 26.8625Z" stroke="white" stroke-width="2" stroke-linecap="round" stroke-linejoin="round"/>
<path d="M39.375 19.25C40.8247 19.25 42 18.0747 42 16.625C42 15.1753 40.8247 14 39.375 14C37.9253 14 36.75 15.1753 36.75 16.625C36.75 18.0747 37.9253 19.25 39.375 19.25Z" fill="white"/>
</svg>
