<svg width="56" height="56" viewBox="0 0 56 56" fill="none" xmlns="http://www.w3.org/2000/svg">
<path d="M21 21H35" stroke="white" stroke-width="2" stroke-linecap="round" stroke-linejoin="round"/>
<path d="M21 28H35" stroke="white" stroke-width="2" stroke-linecap="round" stroke-linejoin="round"/>
<path d="M21 35H28" stroke="white" stroke-width="2" stroke-linecap="round" stroke-linejoin="round"/>
<path d="M34.2781 47.25H10.5C10.0359 47.25 9.59075 47.0656 9.26256 46.7374C8.93437 46.4093 8.75 45.9641 8.75 45.5V10.5C8.75 10.0359 8.93437 9.59075 9.26256 9.26256C9.59075 8.93437 10.0359 8.75 10.5 8.75H45.5C45.9641 8.75 46.4093 8.93437 46.7374 9.26256C47.0656 9.59075 47.25 10.0359 47.25 10.5V34.2781C47.2508 34.5054 47.2068 34.7305 47.1204 34.9407C47.0341 35.1509 46.9072 35.342 46.7469 35.5031L35.5031 46.7469C35.342 46.9072 35.1509 47.0341 34.9407 47.1204C34.7305 47.2068 34.5054 47.2508 34.2781 47.25Z" stroke="white" stroke-width="2" stroke-linecap="round" stroke-linejoin="round"/>
<path d="M47.0969 35H35V47.0969" stroke="white" stroke-width="2" stroke-linecap="round" stroke-linejoin="round"/>
</svg>
