<svg width="56" height="56" viewBox="0 0 56 56" fill="none" xmlns="http://www.w3.org/2000/svg">
<path d="M7 14V31.5" stroke="white" stroke-width="2" stroke-linecap="round" stroke-linejoin="round"/>
<path d="M11.8555 47.2504C13.6065 44.5647 15.9999 42.3583 18.8188 40.831C21.6377 39.3038 24.7931 38.5039 27.9992 38.5039C31.2053 38.5039 34.3607 39.3038 37.1796 40.831C39.9986 42.3583 42.392 44.5647 44.143 47.2504" stroke="white" stroke-width="2" stroke-linecap="round" stroke-linejoin="round"/>
<path d="M49 14L28 21L7 14L28 7L49 14Z" stroke="white" stroke-width="2" stroke-linecap="round" stroke-linejoin="round"/>
<path d="M37.0344 17.9812C38.6397 19.7342 39.7003 21.9164 40.0869 24.2617C40.4735 26.607 40.1694 29.0142 39.2118 31.1897C38.2541 33.3652 36.6842 35.2151 34.6934 36.5139C32.7026 37.8127 30.377 38.5042 28 38.5042C25.623 38.5042 23.2974 37.8127 21.3066 36.5139C19.3159 35.2151 17.7459 33.3652 16.7883 31.1897C15.8306 29.0142 15.5265 26.607 15.9131 24.2617C16.2998 21.9164 17.3603 19.7342 18.9656 17.9812" stroke="white" stroke-width="2" stroke-linecap="round" stroke-linejoin="round"/>
</svg>
