<svg width="12" height="13" viewBox="0 0 12 13" fill="none" xmlns="http://www.w3.org/2000/svg">
<g clip-path="url(#clip0_523_17791)">
<path d="M7.57888 11.2798C6.01618 12.8425 3.48474 12.8425 1.92203 11.2798C0.359324 9.71714 0.359324 7.18569 1.92203 5.62299L6.16467 1.38035C7.33847 0.206551 9.23351 0.206551 10.4073 1.38035C11.5811 2.55415 11.5811 4.44919 10.4073 5.62299L6.16467 9.86563C5.38685 10.6434 4.11406 10.6434 3.33624 9.86563C2.55843 9.08781 2.55843 7.81502 3.33624 7.0372L7.57888 2.79456L8.28599 3.50167L4.04335 7.74431C3.65444 8.13322 3.65444 8.76961 4.04335 9.15852C4.43226 9.54743 5.06865 9.54743 5.45756 9.15852L9.7002 4.91588C10.478 4.13806 10.478 2.86527 9.7002 2.08745C8.92239 1.30964 7.64959 1.30964 6.87178 2.08745L2.62914 6.3301C1.45534 7.50389 1.45534 9.39894 2.62914 10.5727C3.80293 11.7465 5.69798 11.7465 6.87178 10.5727L10.4073 7.0372L11.1144 7.74431L7.57888 11.2798Z" fill="#00395C" fill-opacity="0.8"/>
</g>
<defs>
<clipPath id="clip0_523_17791">
<rect width="12" height="12" fill="white" transform="translate(0 0.5)"/>
</clipPath>
</defs>
</svg>
