<svg width="16" height="16" viewBox="0 0 16 16" fill="none" xmlns="http://www.w3.org/2000/svg">
<g opacity="0.4">
<path d="M0.788086 8C1.41475 4.58667 4.40609 2 8.00075 2C11.5954 2 14.5861 4.58667 15.2134 8C14.5868 11.4133 11.5954 14 8.00075 14C4.40609 14 1.41542 11.4133 0.788086 8ZM8.00075 11.3333C8.88481 11.3333 9.73265 10.9821 10.3578 10.357C10.9829 9.7319 11.3341 8.88406 11.3341 8C11.3341 7.11595 10.9829 6.2681 10.3578 5.64298C9.73265 5.01786 8.88481 4.66667 8.00075 4.66667C7.1167 4.66667 6.26885 5.01786 5.64373 5.64298C5.01861 6.2681 4.66742 7.11595 4.66742 8C4.66742 8.88406 5.01861 9.7319 5.64373 10.357C6.26885 10.9821 7.1167 11.3333 8.00075 11.3333ZM8.00075 10C7.47032 10 6.96161 9.78929 6.58654 9.41421C6.21147 9.03914 6.00075 8.53043 6.00075 8C6.00075 7.46957 6.21147 6.96086 6.58654 6.58579C6.96161 6.21071 7.47032 6 8.00075 6C8.53119 6 9.03989 6.21071 9.41497 6.58579C9.79004 6.96086 10.0008 7.46957 10.0008 8C10.0008 8.53043 9.79004 9.03914 9.41497 9.41421C9.03989 9.78929 8.53119 10 8.00075 10Z" fill="#002033" fill-opacity="0.6"/>
</g>
</svg>
