<svg width="19" height="33" viewBox="0 0 19 33" fill="none" xmlns="http://www.w3.org/2000/svg">
<path d="M17.4396 11.3184C17.415 12.4508 17.2818 13.6453 17.1129 14.3582C17.1743 13.1291 17.0277 11.3933 16.7496 10.0376C16.4723 8.68158 15.6839 6.42118 15.0558 5.37245C14.4772 6.36891 13.7618 8.32614 13.3875 10.0265C13.0109 11.7256 13 13.7821 13 14.3995C12.8995 13.8755 12.6499 12.0254 12.7219 10.1624C12.7812 8.62496 13.1336 7.04718 13.3267 6.3195C14.0642 3.8943 14.9002 2.34442 15.0558 2.09704C15.2126 2.34442 16.266 4.2529 16.8111 6.25842C17.3536 8.26598 17.4615 10.1869 17.4396 11.3184V11.3184ZM15.0687 19.982C14.7424 19.3561 14.2321 18.162 14.1845 16.3189C14.1716 14.533 14.8737 13.0045 15.0793 12.6846C15.2635 13.0045 15.8654 14.3358 15.9379 16.1574C15.9878 17.9399 15.4081 19.3426 15.0687 19.982V19.982ZM17.6318 6.28401C16.9668 3.31706 15.2964 0.90382 15.0687 0.510742C14.7048 1.06426 13.3743 3.19342 12.6982 5.55727C11.96 8.19249 11.8512 10.5299 12.1051 12.8339C12.3594 15.1349 13.3157 17.4978 13.3157 17.4978C13.8233 18.7399 14.5845 20.0679 15.0793 20.7209C15.8043 19.7603 17.4762 16.8962 17.995 13.1537C18.2842 11.0733 18.2951 9.24975 17.6318 6.28401Z" fill="#0078D2"/>
<path d="M10.9842 21.3471V24.8563C10.9886 24.8519 10.9929 24.8472 10.9995 24.8422C12.204 23.6198 14.1585 23.6198 15.3641 24.8422C16.5706 26.0627 16.5706 28.0479 15.3641 29.2691C15.3598 29.2741 15.3551 29.2784 15.3494 29.2838V29.2852C15.3419 29.2906 15.3364 29.2959 15.3318 29.3017C14.1276 30.5108 12.556 31.118 10.9842 31.118C9.40836 31.118 7.82824 30.5047 6.62459 29.2876C4.50365 27.135 4.24935 23.8061 5.86854 21.3746C6.08587 21.046 6.33743 20.734 6.62459 20.4447C7.82824 19.2232 9.40836 18.6148 10.9842 18.6148V10.2434C4.92119 10.2434 0 15.2293 0 21.3746C0 27.525 4.92119 32.5107 10.9842 32.5107C14.1495 32.5107 16.9971 31.1523 19 28.9847V21.3471H10.9842Z" fill="#0078D2"/>
</svg>
