<svg width="164" height="60" viewBox="0 0 164 60" fill="none" xmlns="http://www.w3.org/2000/svg">
<path d="M76.8276 9.5H77.883V50.5H76.8276V9.5Z" fill="#0078D2"/>
<path d="M53.9351 28.6381C53.6766 28.6381 53.4663 28.4432 53.4663 28.2023C53.4663 28.1968 53.4687 28.1917 53.4687 28.1859V20.8298V20.7966L53.471 20.7657C53.4953 20.5492 53.6919 20.3773 53.9331 20.3773C54.1738 20.3773 54.3737 20.5492 54.3971 20.7657L54.3999 20.7966C54.3999 20.8024 54.3999 20.8232 54.3999 20.8298V28.1859C54.3999 28.1917 54.4014 28.1968 54.4014 28.2023C54.4014 28.4432 54.1915 28.6381 53.9351 28.6381ZM54.8068 19.0192H53.061C51.5848 19.0192 51.4972 20.2116 51.4972 20.9806V28.0329C51.4972 28.803 51.5848 29.9953 53.061 29.9953H54.8068C56.283 29.9953 56.3734 28.803 56.3734 28.0329V20.9806C56.3734 20.2116 56.283 19.0192 54.8068 19.0192Z" fill="#0078D2"/>
<path d="M21.948 19.0192H25.9697V20.3823H24.0558V29.9953H21.948V19.0192Z" fill="#0078D2"/>
<path d="M26.2814 29.9953H28.3419L28.5398 27.0776H29.5341L29.7288 29.9953H31.7926L30.6922 19.0192H27.3809L26.2814 29.9953ZM28.614 25.8714L28.9771 20.3805H29.0955L29.4568 25.8714H28.614Z" fill="#0078D2"/>
<path d="M34.8111 26.152V28.2176C34.8111 28.5 35.0191 28.5803 35.1415 28.5803C35.3361 28.5803 35.4721 28.4062 35.4721 28.2176V25.6659C35.4721 25.3211 35.4132 24.9462 34.6269 24.9462H33.7727V23.7382H34.6575C35.2598 23.7382 35.4721 23.5951 35.4721 22.9248V20.7409C35.4721 20.5534 35.3361 20.3823 35.1415 20.3823C35.0191 20.3823 34.8111 20.4602 34.8111 20.7409V22.5313H32.7017V20.9806C32.7017 20.2116 32.7935 19.0192 34.2674 19.0192H36.0156C37.4917 19.0192 37.5812 20.2116 37.5812 20.9806V22.7375C37.5812 23.9268 36.7822 24.2552 36.149 24.2246V24.3352C37.5637 24.3014 37.5812 25.4316 37.5812 25.8246V28.0329C37.5812 28.803 37.4917 29.9953 36.0156 29.9953H34.2674C32.7935 29.9953 32.7017 28.803 32.7017 28.0329V26.152H34.8111Z" fill="#0078D2"/>
<path d="M38.968 19.0192H43.8461V29.9953H41.8794V20.3823H40.9333V29.9953H38.968V19.0192Z" fill="#0078D2"/>
<path d="M45.3731 29.9953H47.4799V26.2638H48.6847C50.1608 26.2638 50.3958 25.0726 50.3958 24.3014V20.9806C50.3958 20.2116 50.1608 19.0192 48.6847 19.0192H45.3731V29.9953ZM47.4799 25.0539V20.3823H48.0338C48.2625 20.3823 48.4282 20.5862 48.4282 20.9292V24.507C48.4282 24.8523 48.2625 25.0539 48.0338 25.0539H47.4799Z" fill="#0078D2"/>
<path d="M63.1002 19.0192H65.8425V29.9953H63.7332V23.1119H63.6581L62.5721 29.9953H60.8879L59.8033 23.1119H59.7292V29.9953H57.6198V19.0192H60.3578L61.7265 26.7328L63.1002 19.0192Z" fill="#0078D2"/>
<path d="M17.452 20.1348C17.4274 21.248 17.2941 22.4221 17.1251 23.123C17.1866 21.9147 17.0399 20.2084 16.7616 18.8757C16.484 17.5428 15.6951 15.3207 15.0665 14.2898C14.4875 15.2694 13.7717 17.1934 13.3971 18.8648C13.0203 20.535 13.0093 22.5566 13.0093 23.1636C12.9087 22.6484 12.659 20.8298 12.731 18.9984C12.7904 17.4871 13.143 15.9361 13.3362 15.2208C14.0742 12.8368 14.9108 11.3132 15.0665 11.07C15.2235 11.3132 16.2776 13.1893 16.8231 15.1607C17.366 17.1342 17.474 19.0225 17.452 20.1348ZM15.0795 28.6513C14.7529 28.036 14.2423 26.8622 14.1947 25.0504C14.1817 23.2948 14.8843 21.7923 15.0901 21.4778C15.2744 21.7923 15.8768 23.101 15.9493 24.8916C15.9992 26.6439 15.4191 28.0227 15.0795 28.6513ZM17.6443 15.1859C16.9789 12.2693 15.3073 9.89708 15.0795 9.51068C14.7153 10.0548 13.3839 12.1478 12.7073 14.4715C11.9686 17.062 11.8597 19.3597 12.1138 21.6245C12.3683 23.8865 13.3252 26.2093 13.3252 26.2093C13.8332 27.4302 14.5949 28.7357 15.0901 29.3776C15.8155 28.4334 17.4887 25.6179 18.0079 21.939C18.2972 19.8939 18.3082 18.1013 17.6443 15.1859Z" fill="#0078D2"/>
<path d="M10.9919 29.9932V33.4429C10.9963 33.4385 11.0006 33.4339 11.0072 33.4289C12.2125 32.2274 14.1684 32.2274 15.3749 33.4289C16.5822 34.6288 16.5822 36.5803 15.3749 37.7807C15.3705 37.7856 15.3659 37.7899 15.3601 37.7952V37.7965C15.3527 37.8018 15.3471 37.807 15.3426 37.8128C14.1375 39.0013 12.5649 39.5983 10.9919 39.5983C9.41497 39.5983 7.83373 38.9953 6.62924 37.7989C4.50681 35.6828 4.25234 32.4105 5.87266 30.0203C6.09014 29.6972 6.34188 29.3905 6.62924 29.1062C7.83373 27.9054 9.41497 27.3074 10.9919 27.3074V19.0781C4.92465 19.0781 0 23.9794 0 30.0203C0 36.0662 4.92465 40.9673 10.9919 40.9673C14.1594 40.9673 17.009 39.632 19.0133 37.5012V29.9932H10.9919Z" fill="#0078D2"/>
<path d="M63.8725 38.3746C63.8725 39.4178 63.3977 39.6034 62.1886 39.6034H61.0759V34.8384H62.1886V36.6773H62.3745C63.4681 36.6773 63.8725 36.9322 63.8725 37.8849V38.3746ZM54.5879 35.7385H53.745V39.6069H52.6864V35.7385H51.7837V34.8341H54.5879V35.7385ZM46.0271 37.9039C46.0271 38.8716 45.5353 39.1318 44.4394 39.1318V39.6034H43.3578V39.1318C42.2584 39.1318 41.7609 38.8716 41.7609 37.9039V36.4151C41.7609 35.4428 42.2385 35.1954 43.3578 35.1954V34.8384H44.4394V35.1954C45.5521 35.1954 46.0271 35.4428 46.0271 36.4151V37.9039ZM35.9408 35.7385H34.419V36.6759H35.7811V37.5794H34.419V38.7024H35.9408V39.6069H33.2709V34.8341H35.9408V35.7385ZM26.7133 39.6034H25.5998V37.5176H25.0283V39.6034H23.9158V34.8384H25.0283V36.6773H25.5998V34.8384H26.7133V39.6034ZM65.8425 33.6501H21.948V40.9673H65.8425V33.6501ZM42.8429 36.3851V37.9106C42.8429 38.1904 42.9324 38.2543 43.1779 38.2543H43.3578V36.0339H43.1779C42.9324 36.0339 42.8429 36.1052 42.8429 36.3851ZM62.4361 37.5176H62.1886V38.7617H62.4361C62.6858 38.7617 62.7606 38.6984 62.7606 38.4261V37.8526C62.7606 37.5794 62.6858 37.5176 62.4361 37.5176ZM44.6107 36.0339H44.4394V38.2543H44.6107C44.8582 38.2543 44.9477 38.1844 44.9477 37.9039V36.3718C44.9477 36.0914 44.8582 36.0339 44.6107 36.0339Z" fill="#0078D2"/>
<path d="M93.7264 28.3248C93.5609 27.4975 93.0772 26.9885 92.2118 26.9885C91.1807 26.9885 90.6336 27.6885 90.6336 29.3684V30.6157C90.6336 32.2447 91.1807 32.9957 92.2118 32.9957C93.1026 32.9957 93.5355 32.5503 93.7264 31.6593H95.4188C95.1263 33.6319 94.0188 34.4975 92.2118 34.4975C90.2391 34.4975 88.8517 33.3011 88.8517 30.6157V29.3684C88.8517 26.6575 90.2391 25.4866 92.2118 25.4866C93.9554 25.4866 95.1388 26.403 95.4317 28.3248H93.7264Z" fill="#0078D2"/>
<path d="M98.7667 29.0883H101.809V25.601H103.59V34.3829H101.809V30.5902H98.7667V34.3829H96.9851V25.601H98.7667V29.0883Z" fill="#0078D2"/>
<path d="M104.724 34.3829L107.778 25.601H109.484L112.538 34.3829H110.642L110.107 32.7156H107.167L106.633 34.3829H104.724ZM107.638 31.2138H109.624L108.631 28.1212L107.638 31.2138Z" fill="#0078D2"/>
<path d="M119.45 27.1156H115.453V28.8211H116.815C119.144 28.8211 120.099 30.0683 120.099 31.5955C120.099 33.1229 119.144 34.3829 116.815 34.3829H113.672V25.601H119.45V27.1156ZM115.453 30.3228V32.8811H116.713C117.871 32.8811 118.317 32.3846 118.317 31.5955C118.317 30.8193 117.871 30.3228 116.713 30.3228H115.453Z" fill="#0078D2"/>
<path d="M125.585 30.4756L122.95 34.3829H120.723L123.917 29.9793L120.952 25.601H123.078L125.585 29.5592V25.601H127.366V29.5592L129.874 25.601H131.999L129.034 29.9156L132.228 34.3829H129.988L127.366 30.4756V34.3829H125.585V30.4756Z" fill="#0078D2"/>
<path d="M138.898 25.601V27.1156H135.207V29.0883H138.517V30.5902H135.207V32.8811H138.898V34.3829H133.426V25.601H138.898Z" fill="#0078D2"/>
<path d="M142.221 29.0883H145.262V25.601H147.044V34.3829H145.262V30.5902H142.221V34.3829H140.439V25.601H142.221V29.0883Z" fill="#0078D2"/>
<path d="M150.876 25.601V31.112L154.541 25.601H155.967V34.3829H154.185V28.9356L150.558 34.3829H149.094V25.601H150.876Z" fill="#0078D2"/>
<path d="M163.476 25.601V27.1156H159.785V29.0883H163.095V30.5902H159.785V32.8811H163.476V34.3829H158.004V25.601H163.476Z" fill="#0078D2"/>
</svg>
