<svg width="20" height="31" viewBox="0 0 20 31" fill="none" xmlns="http://www.w3.org/2000/svg">
<path d="M10 31C11.1046 31 12 30.1046 12 29C12 27.8954 11.1046 27 10 27C8.89543 27 8 27.8954 8 29C8 30.1046 8.89543 31 10 31Z" fill="white"/>
<path d="M10 21.2V18.8C11.5822 18.8 13.129 18.3073 14.4446 17.3843C15.7602 16.4613 16.7855 15.1494 17.391 13.6145C17.9965 12.0796 18.155 10.3907 17.8463 8.76124C17.5376 7.1318 16.7757 5.63507 15.6569 4.46031C14.538 3.28555 13.1126 2.48552 11.5607 2.16141C10.0089 1.83729 8.40034 2.00364 6.93853 2.63942C5.47672 3.27519 4.22729 4.35184 3.34824 5.73321C2.46919 7.11459 2 8.73864 2 10.4" stroke="white" stroke-width="3" stroke-linecap="round" stroke-linejoin="round"/>
</svg>
